<?xml version="1.0" encoding="utf-8"?>
<!-- Generator: Adobe Illustrator 27.5.0, SVG Export Plug-In . SVG Version: 6.00 Build 0)  -->
<svg version="1.1" xmlns="http://www.w3.org/2000/svg" xmlns:xlink="http://www.w3.org/1999/xlink" x="0px" y="0px"
	 viewBox="0 0 500 500" style="enable-background:new 0 0 500 500;" xml:space="preserve">
<g id="BACKGROUND">
	<rect style="fill:#FFFFFF;" width="500" height="500"/>
</g>
<g id="OBJECTS">
	<path style="fill:#EBF3FF;" d="M97.215,121.85c91.325-75.411,133.28,11.638,194.424,29.022
		c61.143,17.385,114.218-6.452,137.294,78.207c23.076,84.658-90.043,183.376-212.32,163.812S12.987,191.4,97.215,121.85z"/>
	<g>
		<path style="fill:#4A0945;" d="M289.567,113.239c-6.399-10.673-29.667-10-32.648,3.461c-2.981,13.461-18.557,15-16.922,23.845
			c1.634,8.846-12.019,1.923-13.461,15.288c-1.442,13.365,27.397,38.672,57.447,22.99c30.05-15.682,7.358-28.756,9.858-36.786
			s5.798-13.606,2.274-16.972C292.591,121.7,297.216,114.681,289.567,113.239z"/>
		<g>
			<path style="fill:#2B022B;" d="M293.479,382.844l-0.032,0.076c0.005-0.048,0.011-0.076,0.011-0.076H293.479z"/>
			<g>
				<path style="fill:#FF94A9;" d="M323.778,392.901l-7.148,8.503l-25.195-4.052c0.718-5.994,1.883-13.596,2.012-14.432l0.032-0.076
					h19.109C312.589,382.844,317.628,387.279,323.778,392.901z"/>
				<path style="fill:#2B022B;" d="M345.763,415.824c-1.057,2.881-27.596-3.75-35.575-5.384c-7.979-1.635-19.234-2.692-19.325-6.442
					c-0.032-1.182,0.216-3.723,0.572-6.647l25.195,4.052l7.148-8.503C333.662,401.932,346.416,414.044,345.763,415.824z"/>
			</g>
			<g>
				<path style="fill:#FF94A9;" d="M280.41,362.524l-11.056,1.078l-15.174-20.517c4.705-3.782,10.855-8.4,11.532-8.908l0.076-0.031
					l13.658,13.365C279.446,347.51,279.946,354.204,280.41,362.524z"/>
				<path style="fill:#2B022B;" d="M280.091,394.285c-2.771,1.32-17.101-21.98-21.661-28.73c-4.56-6.749-11.864-15.376-9.307-18.12
					c0.803-0.867,2.758-2.51,5.058-4.351l15.174,20.517l11.056-1.078C281.158,375.892,281.802,393.469,280.091,394.285z"/>
			</g>
			<path style="fill:#2B022B;" d="M291.592,212.727c0,0,36.409,54.662,39.229,64.405c2.82,9.743-49.998,75.382-49.998,75.382
				s-20.512-13.333-19.487-16.41c1.026-3.077,37.12-57.583,37.12-57.583s-36.658-47.797-33.94-55.746
				c2.718-7.949,14.147-16.174,14.147-16.174"/>
			<path style="fill:#4A0945;" d="M239.997,217.894c-5.385,38.32,19.319,64.986,38.376,89.344
				c3.673,38.46,12.904,82.817,13.673,82.048s23.076-3.077,22.307-5.641c-0.769-2.564-4.615-82.817-6.923-89.227
				c-2.308-6.41-34.87-80.118-34.87-80.118l-25.255,6.585"/>
		</g>
		<g>
			<path style="fill:#FF94A9;" d="M335.218,220.761c0.737-8.924,1.314-13.968-2.084-9.417c-3.397,4.551-4.231,8.589-4.231,8.589"/>
			<path style="fill:#FFFFFF;" d="M255.848,223.576l1.155-16.11l0.459-6.404l0.529-7.456l0.459-6.399l0.534-7.456l0.459-6.399
				l0.507-7.089l1.878-15.856l16.525,1.02l9.339,13.013c0,0,0.421,2.358,1.063,6.113c0.308,1.802,0.664,3.922,1.052,6.258
				c0.378,2.261,0.782,4.721,1.192,7.289c0.329,2.034,0.658,4.138,0.987,6.258c0.378,2.433,0.744,4.893,1.095,7.3
				c0.313,2.153,0.604,4.262,0.869,6.274c0.496,3.712,0.89,7.1,1.128,9.835C296.355,228.706,278.923,223.187,255.848,223.576z"/>
			<path style="fill:#EAEAEA;" d="M293.949,203.932l-36.946,3.534l0.459-6.404l35.618-3.404
				C293.393,199.81,293.684,201.92,293.949,203.932z"/>
			<path style="fill:#EAEAEA;" d="M291.985,190.358l-33.995,3.248l0.459-6.399l32.549-3.108
				C291.327,186.134,291.656,188.238,291.985,190.358z"/>
			<path style="fill:#EAEAEA;" d="M289.805,176.811l-30.822,2.94l0.459-6.399l29.311-2.8
				C289.061,172.355,289.417,174.475,289.805,176.811z"/>
			<path style="fill:#FF94A9;" d="M332.335,207.542l-12.916,8.352l-16.692-25.298c3.448-5.929,9.042-10.056,13.013-12.43
				C322.542,189.954,332.335,207.542,332.335,207.542z"/>
			<path style="fill:#4CA1FF;" d="M315.739,178.165c-3.971,2.374-9.565,6.501-13.013,12.43l-3.787-5.74
				c0.237,0.399,1.71,3.415-1.252,13.633c-3.205,11.06,2.18,25.033,1.797,24.78c-0.388-0.259-8.206-7.478-10.769-19.126
				c-2.568-11.643-7.909-47.968-12.225-54.037c19.466,2.649,30.617,14.664,33.12,17.89
				C310.371,168.972,312.772,173.018,315.739,178.165z"/>
			<path style="fill:#4CA1FF;" d="M237.748,200.063c0,0-11.725-15.897-7.11-31.281c4.615-15.384,30.212-18.676,30.212-18.676
				s8.12,19.317,6.582,43.995c-1.538,24.678-10.128,53.524-12.692,52.754c-2.564-0.769-23.049-6.998-25.178-15.806
				C230.51,225.318,239.858,206.729,237.748,200.063z"/>
			<g>
				<path style="fill:#90A6FF;" d="M301.852,228.478l14.875-33.254c0.343-0.766,1.366-1.284,2.285-1.157l19.978,2.762
					c0.919,0.127,2.655,2.1,2.312,2.867l-16.143,32.004c-0.343,0.766-1.366,1.284-2.285,1.157l-19.407-1.276
					C302.548,231.455,301.509,229.244,301.852,228.478z"/>
				<g>
					<path style="fill:#C7DDFF;" d="M304.055,231.774l19.978,2.763c0.919,0.127,1.943-0.391,2.285-1.157l14.875-33.254
						c0.343-0.766-0.125-1.49-1.044-1.617l-19.978-2.762c-0.92-0.127-1.943,0.391-2.285,1.157l-14.875,33.254
						C302.667,230.923,303.135,231.647,304.055,231.774z"/>
					<path style="fill:#4A0945;" d="M333.544,207.52L333.544,207.52c0.96,0.133,2.028-0.408,2.385-1.208l1.725-3.855
						c0.358-0.8-0.13-1.555-1.09-1.688l0,0c-0.96-0.133-2.028,0.408-2.386,1.208l-1.724,3.855
						C332.096,206.631,332.584,207.387,333.544,207.52z"/>
				</g>
			</g>
			<path style="fill:#FF94A9;" d="M237.748,200.063c4.428-8.205,15.325-9.615,15.325-9.615l7.777,18.076l35.427,6.142
				c0,0,3.718-2.633,5.977-2.921c2.259-0.288,8.605-4.135,10.192-3.269c1.586,0.865-4.663,6.731-4.663,6.731s2.788,0.625,6.779,1.01
				c3.99,0.385,8.99-1.538,8.509,0.865c-0.481,2.404-6.442,10.192-11.73,10.48c-5.288,0.288-15.384-2.372-15.384-2.372l-39.37-0.697
				c-3.651-0.065-6.979-2.106-8.692-5.331L237.748,200.063z"/>
			
				<line style="fill:none;stroke:#0063BC;stroke-width:1.079;stroke-linecap:round;stroke-linejoin:round;stroke-miterlimit:10;" x1="253.073" y1="190.448" x2="247.304" y2="174.414"/>
			
				<path style="fill:none;stroke:#0063BC;stroke-width:1.079;stroke-linecap:round;stroke-linejoin:round;stroke-miterlimit:10;" d="
				M298.939,184.855c-5.964-9.215-6.829-16.714-6.829-16.714"/>
			<path style="fill:#FF94A9;" d="M327.73,230.223c-4.936-0.641-3.377-6.892-3.377-10.033s0.064-5.961,1.731-6.154
				c1.667-0.192,6.73,3.461,8.269,3.333C335.891,217.241,336.832,224.39,327.73,230.223z"/>
		</g>
		<g>
			<path style="fill:#FF94A9;" d="M278.373,144.807c-0.405,2.12-0.723,4.413-0.998,6.318c-0.065,0.453-0.129,0.885-0.189,1.284
				c-0.183,1.23-0.34,2.185-0.496,2.654c-0.421,1.289-3.696,3.911-8.211,1.926c-4.516-1.991-7.559-4.241-7.629-6.884
				c0,0,2.498-7.979,3.307-13.266c0.081-0.54,0.146-1.052,0.194-1.527c0.038-0.448,0.059-0.863,0.054-1.23l1.036,0.793l0.642,0.491
				L278.373,144.807z"/>
			<path style="fill:#D9568E;" d="M278.373,144.807c-0.405,2.12-0.723,4.413-0.998,6.318c-0.065,0.453-0.129,0.885-0.189,1.284
				c-9.533,2.239-13.013-4.839-13.029-15.57c0-0.502,0.005-1.014,0.022-1.532l0.173,0.005l1.732,0.054L278.373,144.807z"/>
			<path style="fill:#FF94A9;" d="M289.567,121.083c-9.152,8.093-22.159,4.261-22.159,4.261s-0.147,8.256-1.267,9.075
				c-1.12,0.819-0.168-6.789-4.985-6.046c-4.817,0.743-2.188,9.671,2.873,8.408c0,0,3.324,12.448,14.078,11.948
				C288.861,148.23,289.054,136.667,289.567,121.083z"/>
			<path style="fill:#FFFFFF;" d="M278.529,142.464c-0.118,1.322-1.285,2.299-2.608,2.181c-1.322-0.118-2.299-1.286-2.181-2.608
				L278.529,142.464z"/>
			
				<path style="fill:none;stroke:#D9568E;stroke-width:0.5395;stroke-linecap:round;stroke-linejoin:round;stroke-miterlimit:10;" d="
				M262.164,134.728c2.145-0.049,1.224-4.111-1.006-3.457"/>
			
				<path style="fill:none;stroke:#D9568E;stroke-width:0.5395;stroke-linecap:round;stroke-linejoin:round;stroke-miterlimit:10;" d="
				M279.63,132.181c0.088,0.164,1.32,2.746,2.22,4.634c0.464,0.974-0.161,2.117-1.232,2.251l-2.825,0.356"/>
			<path style="fill:#4A0945;" d="M273.258,134.576c-0.121,0.546,0.223,1.086,0.769,1.207c0.546,0.121,1.086-0.223,1.207-0.769
				c0.121-0.546-0.223-1.086-0.769-1.207C273.92,133.686,273.379,134.03,273.258,134.576z"/>
			<path style="fill:#4A0945;" d="M284.352,133.623c-0.121,0.546,0.223,1.086,0.769,1.207c0.546,0.121,1.086-0.223,1.207-0.769
				c0.121-0.546-0.223-1.086-0.769-1.207C285.013,132.733,284.473,133.078,284.352,133.623z"/>
			<path style="fill:none;stroke:#4A0945;stroke-width:0.5395;stroke-linecap:round;stroke-miterlimit:10;" d="M276.13,130.978
				c0,0-2.55-1.485-4.298,0.622"/>
			<path style="fill:none;stroke:#4A0945;stroke-width:0.5395;stroke-linecap:round;stroke-miterlimit:10;" d="M287.116,130.542
				c0,0-2.55-1.485-4.298,0.622"/>
		</g>
	</g>
	<g>
		<g>
			<path style="opacity:0.41;fill:#6D4AFF;" d="M431.3,222.743l-72.374,13.898c-1.569,0.301-2.596-0.624-2.294-2.067l9.601-45.871
				c0.302-1.443,1.819-2.857,3.388-3.158l72.374-13.898c1.569-0.301,2.596,0.624,2.294,2.067l-9.601,45.871
				C434.386,221.028,432.869,222.442,431.3,222.743z"/>
			<path style="opacity:0.41;fill:none;stroke:#6D4AFF;stroke-width:0.5395;stroke-miterlimit:10;" d="M434.377,226.139
				l-72.374,13.898c-1.569,0.301-2.596-0.624-2.294-2.067l9.601-45.871c0.302-1.443,1.819-2.857,3.388-3.158l72.374-13.898
				c1.569-0.301,2.596,0.624,2.294,2.067l-9.601,45.871C437.463,224.424,435.946,225.838,434.377,226.139z"/>
			<g>
				
					<path style="fill:none;stroke:#FFFFFF;stroke-width:1.6185;stroke-linecap:round;stroke-linejoin:round;stroke-miterlimit:10;" d="
					M369.977,214.522c7.369-1.415,6.966,4.263,13.721,2.965c6.755-1.297,9.028-11.218,13.941-12.161
					c4.913-0.943,2.944,3.77,6.935,3.004c3.992-0.766,3.58-8.185,11.665-9.737c8.086-1.553,7.095-9.492,18.251-11.634"/>
				
					<line style="fill:none;stroke:#FFFFFF;stroke-width:1.6185;stroke-linecap:round;stroke-linejoin:round;stroke-miterlimit:10;" x1="374.331" y1="193.723" x2="380.271" y2="192.582"/>
				
					<line style="fill:none;stroke:#FFFFFF;stroke-width:1.6185;stroke-linecap:round;stroke-linejoin:round;stroke-miterlimit:10;" x1="373.444" y1="197.958" x2="384.498" y2="195.835"/>
			</g>
		</g>
		<g>
			<polygon style="fill:#A275FF;" points="385.599,318.825 361.899,327.9 341.347,309.23 365.047,300.156 			"/>
			<polygon style="fill:#6D4AFF;" points="392.362,294.365 385.599,318.825 365.047,300.156 371.81,275.696 			"/>
			<polygon style="fill:#CAB1FF;" points="341.347,309.23 348.315,284.956 371.81,275.696 365.047,300.156 			"/>
		</g>
		<g>
			<polygon style="fill:#A275FF;" points="427.555,281.808 422.479,256.943 444.258,239.721 449.334,264.586 			"/>
			<polygon style="fill:#6D4AFF;" points="450.58,292.48 427.555,281.808 449.334,264.586 472.359,275.258 			"/>
			<polygon style="fill:#CAB1FF;" points="444.258,239.721 467.066,250.564 472.359,275.258 449.334,264.586 			"/>
		</g>
		<g>
			<path style="opacity:0.41;fill:#6D4AFF;" d="M364.768,271.324l-53.221,10.22c-1.809,0.347-2.993-0.719-2.645-2.383l9.56-45.675
				c0.348-1.663,2.097-3.293,3.905-3.64l53.221-10.22c1.809-0.347,2.993,0.719,2.645,2.383l-9.56,45.675
				C368.326,269.347,366.577,270.977,364.768,271.324z"/>
			<path style="opacity:0.41;fill:none;stroke:#6D4AFF;stroke-width:0.5395;stroke-miterlimit:10;" d="M360.804,266.905
				l-53.221,10.22c-1.809,0.347-2.993-0.719-2.645-2.383l9.56-45.675c0.348-1.663,2.097-3.293,3.905-3.641l53.221-10.22
				c1.809-0.347,2.993,0.719,2.645,2.383l-9.56,45.675C364.362,264.928,362.613,266.558,360.804,266.905z"/>
			<path style="fill:#FFFFFF;" d="M360.351,247.363c-1.784,8.523-10.747,16.874-20.01,18.652
				c-9.269,1.78-15.335-3.685-13.551-12.208c1.784-8.523,10.741-16.873,20.01-18.652l-3.23,15.43l15.073-12.21
				C360.426,240.577,361.121,243.683,360.351,247.363z"/>
			<path style="fill:#6D4AFF;" d="M358.644,238.375l-15.073,12.21l3.23-15.43C352.066,234.144,356.296,235.476,358.644,238.375z"/>
		</g>
		<polyline style="opacity:0.41;fill:none;stroke:#6D4AFF;stroke-width:0.5395;stroke-miterlimit:10;" points="308.158,259.363 
			335.054,204.144 374.811,188.535 		"/>
		<polyline style="opacity:0.41;fill:none;stroke:#6D4AFF;stroke-width:0.5395;stroke-miterlimit:10;" points="341.347,309.23 
			335.054,204.144 392.362,294.365 		"/>
		<polyline style="opacity:0.41;fill:none;stroke:#6D4AFF;stroke-width:0.5395;stroke-miterlimit:10;" points="444.258,239.721 
			335.054,204.144 427.555,281.808 		"/>
	</g>
	<g>
		<g>
			<path style="fill:#8136FF;" d="M133.725,368.688c0,0,5.053,41.033,6.582,42.01c1.529,0.977,21.857-43.605,20.511-45.094
				c-1.347-1.489-11.776-10.443-11.776-10.443"/>
			<path style="fill:#A275FF;" d="M124.588,380.206c0,0-13.051,39.229-12.09,40.768c0.962,1.538,38.46-29.999,37.883-31.922
				c-0.577-1.923-6.152-14.487-6.152-14.487"/>
			<path style="fill:#2B022B;" d="M144.503,236.448c0,0-19.364,44.531-21.454,53.377c-2.09,8.846,16.105,76.536,16.105,76.536
				l14.239-7.307l-3.589-66.023l21.922-51.525"/>
			<path style="fill:#4A0945;" d="M169.387,243.262c0,0-55.736,39.512-62.915,47.46c-7.179,7.948,18.115,89.484,18.115,89.484
				s20.413-5.128,19.641-5.641c-0.772-0.513-9.675-68.666-9.675-68.666s52.428-21.331,59.864-34.664
				c7.436-13.333,7.178-26.153,7.178-26.153"/>
		</g>
		<g>
			<path style="fill:#D9568E;" d="M150.709,203.204c-5.827,6.452-13.488,14.901-14.076,15.376
				c-0.96,0.766-26.155,2.627-26.155,2.627l0.793-13.59l17.669-2.984c0,0,4.607-6.868,10.564-14.669
				C146.069,193.654,149.376,199.977,150.709,203.204z"/>
			<path style="fill:#A275FF;" d="M213.142,225.115c-1.138,0.993-2.32,1.926-3.534,2.789c0,0-0.453,1.155-1.128,2.93
				c-0.442,1.149-0.971,2.552-1.532,4.068c-0.739,1.98-1.527,4.143-2.228,6.172c-1.198,3.431-2.158,6.485-2.223,7.602
				c-0.194,3.075-12.981,4.133-26.83,0.674c-13.844-3.464-33.169-12.597-32.975-14.809c0.151-1.748,3.976-6.89,6.226-10.688h0.005
				c0.432-0.728,0.804-1.408,1.084-2.007c0.108-0.227,0.2-0.437,0.275-0.637c0.345-0.901,0.982-3.016,1.732-5.659
				c0.399-1.408,0.831-2.962,1.268-4.564c0.588-2.158,1.192-4.397,1.748-6.469c1.225-4.602,2.206-8.384,2.266-8.616l-0.027,0.027
				c-0.34,0.372-3.129,3.48-6.56,7.278c-0.103-0.243-0.21-0.507-0.34-0.788c-1.516-3.383-4.796-9.042-10.866-12.452
				c6.927-9.069,15.689-19.401,21.165-21.672c10.191-4.23,33.94,1.155,33.94,1.155l3.658,0.383c0,0,20.766,4.489,27.947,16.282
				C232.786,196.915,225.497,214.374,213.142,225.115z"/>
			<g>
				<g>
					<path style="fill:#C1B0FF;" d="M206.949,234.902c-0.739,1.98-1.527,4.143-2.228,6.172
						c-15.392-2.962-37.334-9.625-54.712-19.228c0.108-0.227,0.2-0.437,0.275-0.637c0.345-0.901,0.982-3.016,1.732-5.659
						C169.571,225.531,192.188,232.156,206.949,234.902z"/>
				</g>
				<g>
					<path style="fill:#C1B0FF;" d="M213.142,225.115c-1.138,0.993-2.32,1.926-3.534,2.789c0,0-0.453,1.155-1.128,2.93
						c-15.775-3.135-37.96-10.008-55.197-19.849c0.588-2.158,1.192-4.397,1.748-6.469
						C173.391,215.388,197.987,222.472,213.142,225.115z"/>
				</g>
			</g>
			<path style="fill:#FF94A9;" d="M107.135,218.667c2.694-3.235,2.351-8.681,6.036-6.26c3.685,2.421,1.698,9.563,1.698,9.563"/>
			<g>
				<path style="fill:#90A6FF;" d="M140.558,238.743l-8.626-35.393c-0.199-0.815-1.111-1.509-2.039-1.55l-20.148-0.89
					c-0.927-0.041-2.991,1.587-2.792,2.402l10.099,34.393c0.199,0.815,1.112,1.509,2.039,1.55l19.319,2.25
					C139.336,241.545,140.756,239.558,140.558,238.743z"/>
				<g>
					<path style="fill:#C7DDFF;" d="M137.796,241.587l-20.148-0.891c-0.927-0.041-1.84-0.735-2.039-1.55l-8.626-35.393
						c-0.199-0.815,0.392-1.443,1.319-1.402l20.148,0.89c0.927,0.041,1.84,0.735,2.039,1.551l8.626,35.393
						C139.314,241.001,138.723,241.628,137.796,241.587z"/>
					<path style="fill:#4A0945;" d="M113.171,212.406L113.171,212.406c-0.968-0.043-1.921-0.767-2.128-1.618l-1-4.103
						c-0.208-0.851,0.409-1.506,1.377-1.463l0,0c0.968,0.043,1.921,0.767,2.128,1.618l1,4.103
						C114.756,211.794,114.139,212.449,113.171,212.406z"/>
				</g>
			</g>
			<path style="fill:#FF94A9;" d="M107.66,218.117c5.3,0.712,12.559-0.723,14.327,0.116s2.828,11.75-0.587,12.96
				c-3.414,1.21-8.576,1.773-11.155-0.59C107.666,228.24,104.965,220.023,107.66,218.117z"/>
			<path style="fill:#FF94A9;" d="M194.418,216.109l-14.363,14.999l-32.174-7.5c0,0-12.115-11.666-13.653-10.032
				c-1.538,1.635,2.115,9.134,2.115,9.134s-15.384-1.731-16.346-1.154c-0.961,0.577,3.942,12.307,9.423,13.653
				c5.481,1.346,17.692,1.25,17.692,1.25l33.126,10.864c3.685,1.208,7.734,0.339,10.598-2.276l18.773-17.145
				C209.609,227.904,209.802,216.718,194.418,216.109z"/>
			
				<line style="fill:none;stroke:#6D38C9;stroke-width:1.079;stroke-linecap:round;stroke-linejoin:round;stroke-miterlimit:10;" x1="194.418" y1="216.109" x2="207.494" y2="197.52"/>
			
				<line style="fill:none;stroke:#6D38C9;stroke-width:1.079;stroke-linecap:round;stroke-linejoin:round;stroke-miterlimit:10;" x1="157.269" y1="195.926" x2="160.573" y2="185.021"/>
		</g>
		<g>
			<path style="fill:#4A0945;" d="M178.85,139.718c-7.893-5.577-6.256-10.769-3.165-10.705s5.189,0.897,5.189,0.897
				s-3.773-4.423-1.012-6.731c2.761-2.308,26.029,4.423,29.426,8.269c3.397,3.846,0.449,10.961,0.449,10.961
				s6.987,3.303,0.962,9.664c-6.025,6.361-10.128,11.105-13.717,9.951"/>
			<path style="fill:#FF94A9;" d="M200.058,170.919c-0.642,2.563-4.1,4.1-8.94,5.066c-4.839,0.96-7.467-2.309-7.596-3.658
				c-0.065-0.658,0.043-2.147,0.183-3.992c0.146-1.921,0.329-4.23,0.394-6.388l14.777-6.89l1.182-0.55
				C199.033,158.931,200.058,170.919,200.058,170.919z"/>
			<path style="fill:#D9568E;" d="M199.033,155.085c-0.933,8.449-6.846,15.786-15.327,13.25c0.146-1.921,0.329-4.23,0.394-6.388
				l14.777-6.89L199.033,155.085z"/>
			<path style="fill:#FF94A9;" d="M178.315,134.69c7.181,9.884,20.709,8.961,20.709,8.961s-1.645,8.091-0.73,9.133
				c0.916,1.042,1.635-6.592,6.177-4.822s0.04,9.915-4.627,7.586c0,0-5.942,11.432-16.333,8.614
				C173.122,161.344,175.439,150.015,178.315,134.69z"/>
			
				<path style="fill:none;stroke:#D9568E;stroke-width:0.5395;stroke-linecap:round;stroke-linejoin:round;stroke-miterlimit:10;" d="
				M202.11,153.948c-2.083-0.513-0.304-4.279,1.731-3.157"/>
			
				<path style="fill:none;stroke:#D9568E;stroke-width:0.5395;stroke-linecap:round;stroke-linejoin:round;stroke-miterlimit:10;" d="
				M185.989,147.939c-0.121,0.141-1.884,2.395-3.171,4.043c-0.664,0.85-0.301,2.101,0.715,2.465l2.681,0.96"/>
			<path style="fill:#4A0945;" d="M193.566,152.074c0,0.559-0.453,1.012-1.012,1.012c-0.559,0-1.012-0.453-1.012-1.012
				c0-0.559,0.453-1.012,1.012-1.012C193.113,151.062,193.566,151.515,193.566,152.074z"/>
			<path style="fill:#4A0945;" d="M181.067,148.324c0,0.559-0.453,1.012-1.012,1.012c-0.559,0-1.012-0.453-1.012-1.012
				c0-0.559,0.453-1.012,1.012-1.012C180.614,147.312,181.067,147.765,181.067,148.324z"/>
			<path style="fill:none;stroke:#4A0945;stroke-width:0.5395;stroke-linecap:round;stroke-miterlimit:10;" d="M191.542,147.939
				c0,0,2.811-0.897,4.061,1.538"/>
			<path style="fill:none;stroke:#4A0945;stroke-width:0.5395;stroke-linecap:round;stroke-miterlimit:10;" d="M179.036,144.717
				c0,0,2.811-0.897,4.061,1.538"/>
			
				<path style="fill:none;stroke:#D9568E;stroke-width:0.5395;stroke-linecap:round;stroke-linejoin:round;stroke-miterlimit:10;" d="
				M185.823,158.493c0,0,1.838,1.095,3.977-0.246"/>
		</g>
	</g>
	<g>
		<g>
			<path style="opacity:0.45;fill:#4CA1FF;" d="M45.155,262.081l72.374,13.898c1.569,0.301,2.596-0.624,2.294-2.067l-9.601-45.871
				c-0.302-1.443-1.819-2.857-3.388-3.158L34.46,210.984c-1.569-0.301-2.596,0.624-2.294,2.067l9.601,45.871
				C42.069,260.366,43.585,261.78,45.155,262.081z"/>
			<path style="opacity:0.45;fill:none;stroke:#4CA1FF;stroke-width:0.5395;stroke-miterlimit:10;" d="M40.683,265.091
				l72.374,13.898c1.569,0.301,2.596-0.624,2.295-2.067l-9.601-45.871c-0.302-1.443-1.819-2.857-3.388-3.158l-72.374-13.898
				c-1.569-0.301-2.597,0.624-2.295,2.067l9.601,45.871C37.597,263.375,39.114,264.789,40.683,265.091z"/>
			<g>
				
					<line style="fill:none;stroke:#FFFFFF;stroke-width:1.6185;stroke-linecap:round;stroke-linejoin:round;stroke-miterlimit:10;" x1="99.555" y1="237.579" x2="46.039" y2="225.786"/>
				
					<line style="fill:none;stroke:#FFFFFF;stroke-width:1.6185;stroke-linecap:round;stroke-linejoin:round;stroke-miterlimit:10;" x1="100.973" y1="245.445" x2="47.457" y2="233.653"/>
				
					<line style="fill:none;stroke:#FFFFFF;stroke-width:1.6185;stroke-linecap:round;stroke-linejoin:round;stroke-miterlimit:10;" x1="102.39" y1="253.311" x2="48.874" y2="241.519"/>
				
					<line style="fill:none;stroke:#FFFFFF;stroke-width:1.6185;stroke-linecap:round;stroke-linejoin:round;stroke-miterlimit:10;" x1="103.808" y1="261.178" x2="70.178" y2="253.767"/>
			</g>
		</g>
		<g>
			<path style="opacity:0.45;fill:#4CA1FF;" d="M115.858,296.058l43.31,8.317c0.939,0.18,1.554-0.373,1.373-1.237l-5.746-27.45
				c-0.181-0.864-1.089-1.71-2.028-1.89l-43.31-8.317c-0.939-0.18-1.554,0.374-1.373,1.237l5.746,27.45
				C114.011,295.032,114.919,295.878,115.858,296.058z"/>
			<path style="opacity:0.45;fill:none;stroke:#4CA1FF;stroke-width:0.5395;stroke-miterlimit:10;" d="M112.377,299.391l43.31,8.317
				c0.939,0.18,1.554-0.373,1.373-1.237l-5.746-27.45c-0.181-0.863-1.089-1.71-2.027-1.89l-43.31-8.317
				c-0.939-0.18-1.554,0.374-1.373,1.237l5.746,27.45C110.531,298.365,111.438,299.211,112.377,299.391z"/>
			<g>
				
					<line style="fill:none;stroke:#FFFFFF;stroke-width:0.9686;stroke-linecap:round;stroke-linejoin:round;stroke-miterlimit:10;" x1="148.412" y1="281.395" x2="116.387" y2="274.338"/>
				
					<line style="fill:none;stroke:#FFFFFF;stroke-width:0.9686;stroke-linecap:round;stroke-linejoin:round;stroke-miterlimit:10;" x1="149.261" y1="286.103" x2="117.236" y2="279.046"/>
				
					<line style="fill:none;stroke:#FFFFFF;stroke-width:0.9686;stroke-linecap:round;stroke-linejoin:round;stroke-miterlimit:10;" x1="150.109" y1="290.81" x2="118.084" y2="283.753"/>
				
					<line style="fill:none;stroke:#FFFFFF;stroke-width:0.9686;stroke-linecap:round;stroke-linejoin:round;stroke-miterlimit:10;" x1="150.957" y1="295.517" x2="130.833" y2="291.083"/>
			</g>
		</g>
		<g>
			<polygon style="fill:#4CA1FF;" points="93.438,360.439 78.817,339.695 91.864,315.186 106.484,335.929 			"/>
			<polygon style="fill:#0063BC;" points="118.81,360.983 93.438,360.439 106.484,335.929 131.856,336.474 			"/>
			<polygon style="fill:#80C3FF;" points="91.864,315.186 117.106,315.974 131.856,336.474 106.484,335.929 			"/>
		</g>
		<g>
			<polygon style="fill:#4CA1FF;" points="49.451,199.215 47.457,187.877 57.546,180.338 59.54,191.676 			"/>
			<polygon style="fill:#0063BC;" points="59.759,204.339 49.451,199.215 59.54,191.676 69.848,196.8 			"/>
			<polygon style="fill:#80C3FF;" points="57.546,180.338 67.754,185.537 69.848,196.8 59.54,191.676 			"/>
		</g>
		<polyline style="opacity:0.45;fill:none;stroke:#4CA1FF;stroke-width:0.5395;stroke-miterlimit:10;" points="32.283,211.804 
			112.296,208.814 119.823,273.912 		"/>
		<polyline style="opacity:0.45;fill:none;stroke:#4CA1FF;stroke-width:0.5395;stroke-miterlimit:10;" points="109.458,265.481 
			112.296,208.814 154.796,275.688 		"/>
		<polyline style="opacity:0.45;fill:none;stroke:#4CA1FF;stroke-width:0.5395;stroke-miterlimit:10;" points="78.817,339.695 
			112.296,208.814 131.856,336.474 		"/>
		<polyline style="opacity:0.45;fill:none;stroke:#4CA1FF;stroke-width:0.5395;stroke-miterlimit:10;" points="57.546,180.338 
			112.296,208.814 59.759,204.339 		"/>
	</g>
</g>
</svg>
