<?xml version="1.0" standalone="no"?>
<!DOCTYPE svg PUBLIC "-//W3C//DTD SVG 20010904//EN"
 "http://www.w3.org/TR/2001/REC-SVG-20010904/DTD/svg10.dtd">
<svg version="1.0" xmlns="http://www.w3.org/2000/svg"
 width="3363.000000pt" height="2480.000000pt" viewBox="0 0 3363.000000 2480.000000"
 preserveAspectRatio="xMidYMid meet">

<g transform="translate(0.000000,2480.000000) scale(0.100000,-0.100000)"
fill="#000000" stroke="none">
<path d="M14648 23955 c168 -184 275 -517 327 -1019 72 -695 6 -1857 -165
-2901 -50 -309 -72 -409 -185 -864 -142 -569 -220 -844 -374 -1316 -136 -419
-521 -1534 -636 -1845 -32 -85 -60 -162 -63 -170 -25 -72 304 328 718 875 249
328 757 925 1046 1230 545 574 1042 1017 1417 1263 389 255 505 341 491 363
-17 29 -322 -17 -644 -97 -252 -62 -415 -118 -616 -211 -299 -139 -474 -245
-633 -385 -141 -124 -162 -141 -167 -135 -3 2 34 107 82 233 96 256 223 632
289 860 69 238 118 495 181 949 79 575 10 1475 -151 1961 -72 217 -283 585
-475 829 -136 173 -338 358 -454 417 l-40 21 52 -58z"/>
<path d="M8912 21058 c-62 -131 -169 -532 -218 -814 -31 -182 -44 -474 -33
-721 9 -193 24 -288 75 -476 20 -71 32 -132 29 -135 -4 -4 -59 49 -123 118
-205 222 -754 764 -857 846 -226 182 -670 496 -840 594 -336 194 -866 414
-1249 519 -293 80 -334 86 -606 86 -497 -1 -933 -91 -1189 -244 -105 -63 -115
-72 -51 -51 223 75 546 35 990 -123 649 -230 1646 -793 2560 -1447 256 -183
350 -258 684 -544 422 -362 607 -529 910 -821 252 -243 1339 -1355 1547 -1583
52 -56 95 -98 97 -93 8 25 -152 383 -417 929 -178 366 -254 536 -456 1022
-142 343 -166 404 -291 762 -169 482 -248 756 -348 1203 -52 233 -59 276 -86
530 -12 105 -30 246 -40 315 -33 212 -42 225 -88 128z"/>
<path d="M14350 19764 c-81 -21 -242 -105 -349 -182 -204 -145 -325 -296 -472
-587 -100 -198 -152 -333 -199 -518 -75 -294 -96 -453 -107 -804 -3 -112 -10
-203 -14 -203 -4 0 -24 35 -46 78 -102 208 -335 440 -614 613 -95 59 -129 74
-129 56 0 -6 39 -68 86 -137 140 -204 154 -227 245 -405 197 -382 358 -811
524 -1395 46 -162 95 -326 108 -365 l24 -70 6 55 c3 30 11 179 17 330 35 882
94 1413 210 1887 212 866 486 1474 736 1633 54 34 52 35 -26 14z"/>
<path d="M7107 18365 c-33 -189 67 -569 202 -768 107 -159 328 -394 506 -539
91 -73 331 -226 470 -299 116 -61 344 -158 510 -218 55 -20 99 -41 98 -46 -1
-6 -40 -15 -87 -21 -246 -33 -550 -188 -818 -417 -98 -83 -87 -84 170 -12 470
132 1071 169 1937 119 285 -16 421 -17 390 -4 -11 5 -195 78 -410 163 -536
212 -766 313 -1084 471 -388 195 -650 356 -1006 620 -527 390 -830 722 -864
946 l-7 45 -7 -40z"/>
<path d="M12599 16466 c-195 -69 -319 -243 -319 -449 0 -135 38 -233 128 -329
93 -100 206 -148 346 -148 134 0 226 34 319 120 107 98 158 212 158 355 -1
211 -127 387 -328 454 -89 30 -215 29 -304 -3z"/>
<path d="M8962 13250 c-115 -24 -238 -106 -301 -201 -61 -92 -84 -178 -79
-297 3 -87 7 -105 41 -176 101 -213 333 -320 558 -258 136 38 240 125 305 257
39 79 39 79 39 199 0 103 -4 130 -23 178 -50 125 -158 229 -289 278 -64 24
-187 34 -251 20z"/>
<path d="M10120 11133 c-150 -53 -400 -165 -889 -400 -820 -393 -1655 -720
-2395 -938 -165 -48 -523 -136 -736 -179 -69 -14 -247 -39 -395 -56 -419 -47
-534 -67 -519 -92 28 -46 421 -168 759 -237 248 -50 314 -55 660 -56 365 0
414 5 653 71 68 19 128 34 133 34 20 0 -11 -32 -181 -186 -216 -195 -650 -629
-760 -761 -173 -206 -525 -697 -629 -878 -176 -304 -387 -793 -490 -1135 -107
-354 -126 -481 -118 -789 10 -411 72 -750 183 -1003 31 -73 113 -213 119 -206
2 2 -6 30 -18 63 -19 53 -22 80 -21 240 0 202 18 307 94 555 220 714 902 1912
1672 2937 251 334 847 1002 1308 1467 379 382 1262 1238 1548 1499 62 57 66
66 22 50z"/>
<path d="M10382 10814 c-243 -65 -394 -288 -361 -534 30 -224 245 -410 474
-410 209 0 417 167 464 371 13 56 13 162 0 218 -57 250 -334 421 -577 355z"/>
<path d="M9929 10638 c-210 -531 -480 -1137 -646 -1453 -156 -298 -187 -351
-329 -566 -309 -466 -676 -900 -943 -1115 -110 -88 -238 -159 -308 -170 -78
-12 -44 -24 68 -24 165 0 396 53 564 130 129 58 337 223 516 407 145 149 177
190 312 393 121 183 239 413 337 660 34 85 65 159 70 164 5 5 11 -13 14 -40
31 -257 146 -526 329 -770 100 -133 134 -171 143 -161 4 4 -15 103 -44 220
-94 388 -116 613 -116 1187 1 331 5 468 22 675 25 309 36 495 29 495 -2 0 -10
-15 -18 -32z"/>
</g>
</svg>
